<?xml version="1.0" encoding="utf-8"?>
<!-- Generator: Adobe Illustrator 16.0.0, SVG Export Plug-In . SVG Version: 6.00 Build 0)  -->
<!DOCTYPE svg PUBLIC "-//W3C//DTD SVG 1.1//EN" "http://www.w3.org/Graphics/SVG/1.1/DTD/svg11.dtd">
<svg version="1.1" id="Layer_1" xmlns="http://www.w3.org/2000/svg" xmlns:xlink="http://www.w3.org/1999/xlink" x="0px" y="0px"
	 width="13.182px" height="17.468px" viewBox="0 0 13.182 17.468" enable-background="new 0 0 13.182 17.468" xml:space="preserve">
<g>
	<path d="M6.75,9.866c-0.052,0.137-0.292,0.293-0.423,0.165c-2.471-1.59-4.486-4.625-5.084-6.093
		C0.646,2.471,1.292,0.813,2.59,0.333l0.88-0.323C5.314-0.222,6.906,3.713,6.75,9.866"/>
	<path d="M7.938,10.235c-0.084-0.008-0.224-0.123-0.185-0.218C8.031,8.354,9.178,6.732,9.82,6.164
		c0.64-0.567,1.665-0.452,2.217,0.224l0.372,0.454c0.552,0.673,0.453,1.665-0.221,2.217C12.188,9.059,11.438,10.045,7.938,10.235"/>
	<path d="M5.611,10.91c0.06,0.06,0.095,0.236,0.006,0.284c-1.261,1.118-3.173,1.659-4.03,1.699
		c-0.854,0.039-1.579-0.697-1.585-1.568L0,10.737c-0.006-0.869,0.694-1.581,1.564-1.585C1.564,9.152,2.77,8.855,5.611,10.91"/>
	<path d="M6.418,11.839c0.067-0.052,0.245-0.065,0.284,0.029c0.958,1.385,1.267,3.349,1.204,4.202
		c-0.065,0.855-0.881,1.487-1.746,1.387l-0.585-0.065c-0.865-0.1-1.485-0.88-1.387-1.745C4.188,15.646,4.039,14.415,6.418,11.839"/>
	<path d="M7.736,11.628c-0.032-0.076,0.003-0.253,0.103-0.267c1.59-0.55,3.559-0.317,4.364-0.025
		c0.804,0.291,1.19,1.248,0.863,2.053l-0.22,0.545c-0.328,0.806-1.246,1.195-2.049,0.866C10.795,14.799,9.572,14.612,7.736,11.628z"
		/>
</g>
</svg>
