<?xml version="1.0" encoding="utf-8"?>
<!-- Generator: Adobe Illustrator 16.0.0, SVG Export Plug-In . SVG Version: 6.00 Build 0)  -->
<!DOCTYPE svg PUBLIC "-//W3C//DTD SVG 1.1//EN" "http://www.w3.org/Graphics/SVG/1.1/DTD/svg11.dtd">
<svg version="1.1" id="Layer_1" xmlns="http://www.w3.org/2000/svg" xmlns:xlink="http://www.w3.org/1999/xlink" x="0px" y="0px"
	 width="16.982px" height="16.982px" viewBox="0 0 16.982 16.982" enable-background="new 0 0 16.982 16.982" xml:space="preserve">
<g>
	<path d="M15.328,13.7c0,0.898-0.73,1.627-1.628,1.627H3.282c-0.898,0-1.628-0.729-1.628-1.627V6.748h2.535
		C3.97,7.287,3.847,7.875,3.847,8.491c0,2.56,2.083,4.644,4.644,4.644c2.562,0,4.644-2.084,4.644-4.644
		c0-0.616-0.123-1.204-0.342-1.743h2.535V13.7z M6.067,6.748c0.544-0.753,1.426-1.246,2.424-1.246c0.997,0,1.88,0.493,2.423,1.246
		c0.354,0.491,0.566,1.092,0.566,1.743c0,1.648-1.342,2.989-2.99,2.989c-1.648,0-2.989-1.341-2.989-2.989
		C5.502,7.84,5.713,7.239,6.067,6.748 M14.642,1.957l0.376-0.001v0.373v2.505l-2.869,0.009l-0.01-2.878L14.642,1.957z M13.7,0H3.282
		C1.472,0,0,1.473,0,3.282v3.466V13.7c0,1.81,1.472,3.282,3.282,3.282H13.7c1.81,0,3.282-1.473,3.282-3.282V6.748V3.281
		C16.982,1.473,15.51,0,13.7,0"/>
</g>
</svg>
